<svg xmlns="http://www.w3.org/2000/svg" viewBox="0 0 800 800"><defs>
  <radialGradient id="bg" cx="50%" cy="38%" r="75%"><stop offset="0" stop-color="#2a2414"/><stop offset=".55" stop-color="#121113"/><stop offset="1" stop-color="#09090a"/></radialGradient>
  <linearGradient id="g" x1="0" y1="0" x2="1" y2="1"><stop offset="0" stop-color="#fbeaa8"/><stop offset=".5" stop-color="#d4af37"/><stop offset="1" stop-color="#7d5e14"/></linearGradient>
  <linearGradient id="gd" x1="0" y1="0" x2="1" y2="1"><stop offset="0" stop-color="#b8922a"/><stop offset="1" stop-color="#4d3a0c"/></linearGradient>
  <linearGradient id="k" x1="0" y1="0" x2="0" y2="1"><stop offset="0" stop-color="#2b2b30"/><stop offset="1" stop-color="#0e0e10"/></linearGradient>
</defs>
<rect width="800" height="800" fill="url(#bg)"/>
<g stroke="#d4af37" stroke-opacity=".06"><path d="M0 40H800"/><path d="M0 80H800"/><path d="M0 120H800"/><path d="M0 160H800"/><path d="M0 200H800"/><path d="M0 240H800"/><path d="M0 280H800"/><path d="M0 320H800"/><path d="M0 360H800"/><path d="M0 400H800"/><path d="M0 440H800"/><path d="M0 480H800"/><path d="M0 520H800"/><path d="M0 560H800"/><path d="M0 600H800"/><path d="M0 640H800"/><path d="M0 680H800"/><path d="M0 720H800"/><path d="M0 760H800"/></g>
<ellipse cx="400" cy="690" rx="230" ry="26" fill="#000" opacity=".55"/>
<g transform="translate(400 400)">
<path d="M0 -280 150 -220 200 -60 190 150 120 260H-120L-190 150 -200 -60 -150 -220Z" fill="url(#k)" stroke="url(#g)" stroke-linejoin="round" stroke-width="5"/>
<path d="M0 -280V260M-150 -220 -110 20M150 -220 110 20M-200 -60 -110 20 0 0 110 20 200 -60" fill="none" stroke="url(#g)" stroke-linejoin="round" stroke-width="2" opacity=".6"/>
<path d="M-170 -10H170L160 30H-160Z" fill="url(#g)"/>
<g fill="#050505"><rect x="-150" y="-2" width="120" height="20" rx="4"/><rect x="30" y="-2" width="120" height="20" rx="4"/></g>
<g fill="url(#g)"><circle cx="-70" cy="110" r="7"/><circle cx="-70" cy="150" r="7"/><circle cx="-70" cy="190" r="7"/><circle cx="-35" cy="110" r="7"/><circle cx="-35" cy="150" r="7"/><circle cx="-35" cy="190" r="7"/><circle cx="0" cy="110" r="7"/><circle cx="0" cy="150" r="7"/><circle cx="0" cy="190" r="7"/><circle cx="35" cy="110" r="7"/><circle cx="35" cy="150" r="7"/><circle cx="35" cy="190" r="7"/><circle cx="70" cy="110" r="7"/><circle cx="70" cy="150" r="7"/><circle cx="70" cy="190" r="7"/></g>
<polygon points="-150,-220 0,-280 -40,-120" fill="url(#gd)" opacity=".3"/>
<path d="M0 -280C40 -330 120 -330 150 -300" fill="none" stroke="url(#g)" stroke-width="12" stroke-linecap="round"/>
</g></svg>
